HIERARCHY
ROOT hip
{
	OFFSET 0.000000 0.000000 0.000000 
	CHANNELS 6 Xposition Yposition Zposition Xrotation Zrotation Yrotation
	JOINT abdomen
	{
		OFFSET 0.000000 3.402643 0.000000 
		CHANNELS 3 Xrotation Zrotation Yrotation
		JOINT chest
		{
			OFFSET 0.000000 8.438565 -0.680529 
			CHANNELS 3 Xrotation Zrotation Yrotation
			JOINT neck
			{
				OFFSET 0.000000 10.207942 -0.272212 
				CHANNELS 3 Xrotation Zrotation Yrotation
				JOINT head
				{
					OFFSET 0.000000 3.130431 0.000000 
					CHANNELS 3 Xrotation Zrotation Yrotation
					End Site
					{
						OFFSET 0.000000 3.130435 0.000000 
					}
				}
			}
			JOINT lCollar
			{
				OFFSET 3.470700 6.669187 -0.816635 
				CHANNELS 3 Zrotation Yrotation Xrotation
				JOINT lShldr
				{
					OFFSET 3.198488 0.000000 0.000000 
					CHANNELS 3 Zrotation Yrotation Xrotation
					JOINT lForeArm
					{
						OFFSET 10.139888 0.000000 0.000000 
						CHANNELS 3 Yrotation Zrotation Xrotation
						JOINT lHand
						{
							OFFSET 8.370511 0.000000 0.000000 
							CHANNELS 3 Zrotation Yrotation Xrotation
							End Site
							{
								OFFSET 4.083176 0.000000 0.000000 
							}
						}
					}
				}
			}
			JOINT rCollar
			{
				OFFSET -3.470700 6.669187 -0.816635 
				CHANNELS 3 Zrotation Yrotation Xrotation
				JOINT rShldr
				{
					OFFSET -3.198488 0.000000 0.000000 
					CHANNELS 3 Zrotation Yrotation Xrotation
					JOINT rForeArm
					{
						OFFSET -10.139888 0.000000 0.000000 
						CHANNELS 3 Yrotation Zrotation Xrotation
						JOINT rHand
						{
							OFFSET -8.370511 0.000000 0.000000 
							CHANNELS 3 Zrotation Yrotation Xrotation
							End Site
							{
								OFFSET -4.083176 0.000000 0.000000 
							}
						}
					}
				}
			}
		}
	}
	JOINT lThigh
	{
		OFFSET 5.308129 -1.633274 1.361059 
		CHANNELS 3 Xrotation Zrotation Yrotation
		JOINT lShin
		{
			OFFSET -2.041588 -20.007561 0.000000 
			CHANNELS 3 Xrotation Zrotation Yrotation
			JOINT lFoot
			{
				OFFSET 0.000000 -19.190928 -1.224953 
				CHANNELS 3 Xrotation Yrotation Zrotation
				End Site
				{
					OFFSET 0.000000 -2.449906 4.627600 
				}
			}
		}
	}
	JOINT rThigh
	{
		OFFSET -5.308129 -1.633274 1.361059 
		CHANNELS 3 Xrotation Zrotation Yrotation
		JOINT rShin
		{
			OFFSET 2.041588 -20.007561 0.000000 
			CHANNELS 3 Xrotation Zrotation Yrotation
			JOINT rFoot
			{
				OFFSET 0.000000 -19.190928 -1.224953 
				CHANNELS 3 Xrotation Yrotation Zrotation
				End Site
				{
					OFFSET 0.000000 -2.449906 4.627600 
				}
			}
		}
	}
}
MOTION
Frames: 14
Frame Time: 0.016667
-0.787819 29.134703 -12.601746 -15.238751 -11.932549 16.218287 38.894104 23.406740 -3.551508 5.753722 -0.302629 2.880838 -8.154548 0.375113 -0.066630 10.442138 -5.146984 7.010197 -12.714433 -16.941280 3.123557 -71.807701 9.259109 -34.060608 -68.086594 -5.000000 4.683515 -0.674486 -7.963836 -45.000000 6.907931 20.855921 2.110286 56.792179 17.406490 9.635485 66.724449 5.000000 16.663948 -21.066381 11.548743 0.628020 -77.361946 11.787124 -20.432280 124.786583 3.153649 -4.329069 -32.829399 -1.268589 -9.126573 11.099605 10.129662 -19.118515 111.571320 -5.185515 11.049356 -27.362906 -12.877351 13.788249 
-0.797324 29.110838 -12.618424 -14.742675 -12.224626 15.735509 38.452785 23.392246 -3.188997 5.772995 -0.312391 2.861305 -8.056766 0.249588 -0.047639 10.450792 -5.127168 7.049103 -12.662229 -16.924875 3.107752 -71.982079 9.286372 -34.050564 -68.054405 -5.000000 4.656398 -0.801730 -8.265574 -45.000000 6.732818 21.011208 2.080195 56.839542 17.317894 9.645740 66.610283 5.000000 16.776449 -21.486237 11.908594 0.928101 -77.988716 12.101095 -20.515640 124.910118 3.230593 -4.354230 -32.496391 -0.908728 -9.530854 10.437769 10.231080 -18.778170 111.741539 -5.184432 10.939882 -28.139290 -13.248846 13.640401 
-0.789960 29.088171 -12.630742 -14.245500 -12.523604 15.302801 37.982731 23.452412 -2.851777 5.811711 -0.331920 2.822241 -7.939490 0.114408 -0.027186 10.471319 -5.097770 7.078286 -12.647853 -16.908487 3.092204 -72.129768 9.335212 -34.069733 -68.045387 -5.000000 4.645857 -0.947868 -8.502812 -45.000000 6.489079 21.195509 2.024176 56.926140 17.209166 9.636837 66.495956 5.000000 16.873713 -21.807703 12.210048 1.195814 -78.612335 12.343750 -20.589727 125.024117 3.261313 -4.415070 -32.363506 -0.660962 -9.689972 9.804106 10.301668 -18.449509 111.889008 -5.194449 10.912454 -28.896120 -13.618734 13.524405 
-0.765099 29.066690 -12.638670 -13.738038 -12.829550 14.920183 37.450783 23.614630 -2.546097 5.849834 -0.380740 2.753875 -7.802735 -0.028967 0.004383 10.509676 -5.068159 7.126922 -12.677090 -16.887854 3.095112 -72.242424 9.392326 -34.117748 -68.053017 -5.000000 4.639707 -1.100909 -8.676621 -45.000000 6.196468 21.399181 1.951008 57.071522 17.089790 9.618725 66.346649 5.000000 17.002460 -22.040140 12.445691 1.446619 -79.188156 12.460955 -20.637444 125.169456 3.310034 -4.406229 -32.484699 -0.418238 -9.642501 9.179172 10.340916 -18.164419 112.024742 -5.223531 10.932811 -29.666311 -13.968230 13.449391 
-0.723811 29.046741 -12.641109 -13.224018 -13.126467 14.537981 36.916538 23.789145 -2.250195 5.888204 -0.419797 2.685581 -7.666056 -0.173803 0.026296 10.537092 -5.048239 7.176420 -12.705671 -16.857693 3.095942 -72.350815 9.460626 -34.184319 -68.068832 -5.000000 4.644674 -1.261185 -8.844462 -45.000000 5.874723 21.612558 1.869476 57.236164 16.950590 9.597942 66.223877 5.000000 17.099611 -22.237411 12.662606 1.676868 -79.778992 12.549810 -20.704466 125.335381 3.329575 -4.395277 -32.553246 -0.166579 -9.514822 8.581664 10.355402 -17.869081 112.149773 -5.254574 10.972184 -30.523691 -14.291424 13.390027 
-0.665608 29.028709 -12.637383 -12.712913 -13.411984 14.191888 36.383465 24.064304 -1.966411 5.906340 -0.497911 2.607456 -7.480587 -0.299328 0.045288 10.539557 -5.085455 7.313456 -12.774944 -16.825428 3.106037 -72.424179 9.546339 -34.279682 -68.098228 -5.000000 4.693570 -1.401799 -8.989379 -45.000000 5.494135 21.835585 1.761447 57.460197 16.781176 9.522001 66.119781 5.000000 17.176058 -22.322214 12.737185 1.753990 -80.295959 12.549711 -20.729309 125.482758 3.337625 -4.367213 -32.867184 0.018134 -9.200133 8.043961 10.304399 -17.614033 112.203972 -5.312211 11.075957 -31.336092 -14.596952 13.271777 
-0.587762 29.012341 -12.626758 -12.205758 -13.688334 13.846080 35.837673 24.350100 -1.699852 5.915088 -0.566265 2.519565 -7.295097 -0.435969 0.056084 10.549455 -5.132186 7.461082 -12.853715 -16.783106 3.116297 -72.489288 9.637391 -34.372047 -68.126625 -5.000000 4.751743 -1.536949 -9.129108 -45.000000 5.104121 22.068451 1.653866 57.704197 16.601677 9.416931 66.024574 5.000000 17.244164 -22.375626 12.777987 1.807682 -80.807297 12.519702 -20.769053 125.659798 3.327988 -4.345013 -33.192310 0.205315 -8.834538 7.516894 10.226300 -17.341398 112.296120 -5.401202 11.191889 -32.183537 -14.822458 13.225684 
-0.490073 28.996777 -12.608731 -11.702495 -13.973302 13.521855 35.281227 24.724268 -1.397789 5.943135 -0.673685 2.392611 -7.060866 -0.561493 0.075075 10.544497 -5.188059 7.648495 -12.967808 -16.765545 3.148784 -72.509369 9.739325 -34.485111 -68.176033 -5.000000 4.790332 -1.704183 -9.248148 -45.000000 4.645754 22.320759 1.520256 58.016502 16.362532 9.273438 65.956337 5.000000 17.304983 -22.215208 12.684479 1.736216 -81.243683 12.422811 -20.780445 125.846634 3.337837 -4.305753 -33.534592 0.424553 -8.478063 7.019282 10.139337 -17.094465 112.337761 -5.506865 11.357701 -32.923801 -15.082027 13.138325 
-0.372988 28.982124 -12.583168 -11.225271 -14.266355 13.226358 34.702267 25.187286 -1.066255 5.971508 -0.820179 2.207065 -6.787630 -0.696673 0.095527 10.557350 -5.233783 7.864202 -13.111520 -16.777025 3.188216 -72.490768 9.853254 -34.608238 -68.254784 -5.000000 4.808475 -1.905726 -9.347924 -45.000000 4.138682 22.612173 1.369485 58.397839 16.063713 9.052435 65.915092 5.000000 17.358551 -21.847935 12.472025 1.535952 -81.672714 12.237232 -20.835188 126.073502 3.328204 -4.257643 -33.888493 0.612961 -8.166707 6.609821 10.004740 -16.830181 112.328049 -5.614323 11.590899 -33.670078 -15.314076 13.078794 
-0.232949 28.968454 -12.551465 -10.737979 -14.541211 12.919300 34.120247 25.656713 -0.766898 6.010546 -0.956916 2.011758 -6.494872 -0.812542 0.113057 10.557797 -5.288922 8.090526 -13.245754 -16.798460 3.227545 -72.462204 9.969993 -34.718811 -68.337097 -5.000000 4.812382 -2.113122 -9.455448 -45.000000 3.612261 22.903751 1.209790 58.808357 15.744907 8.821884 65.895523 5.000000 17.397236 -21.410105 12.198044 1.271580 -82.069946 12.033281 -20.849909 126.271057 3.325849 -4.202949 -34.252502 0.860157 -7.842690 6.181180 9.861799 -16.569016 112.347832 -5.712020 11.827436 -34.396957 -15.550068 12.987242 
-0.071551 28.955822 -12.513975 -10.256034 -14.786571 12.631380 33.543072 26.160538 -0.478585 6.030181 -1.122950 1.806687 -6.153125 -0.910560 0.118010 10.512230 -5.362707 8.356653 -13.367208 -16.925411 3.286097 -72.423584 10.053746 -34.787991 -68.441360 -5.000000 4.743770 -2.383934 -9.568943 -45.000000 3.008136 23.224703 1.028328 59.355881 15.345858 8.526741 66.021233 5.000000 17.325283 -20.540207 11.672438 0.663032 -82.439240 11.728704 -20.900232 126.546135 3.310105 -4.178223 -34.630272 1.013608 -7.672135 5.789938 9.566821 -16.329382 112.316933 -5.848416 12.104093 -35.220432 -15.711235 12.846684 
0.110284 28.943893 -12.472359 -9.762305 -15.021976 12.350595 32.963203 26.683475 -0.203706 6.040624 -1.288986 1.611390 -5.811517 -0.997462 0.131156 10.462626 -5.445645 8.642240 -13.479411 -17.062254 3.347817 -72.383018 10.134702 -34.847961 -68.557510 -5.000000 4.663802 -2.669882 -9.693955 -45.000000 2.384228 23.536180 0.824320 59.932922 14.917038 8.190040 66.159569 5.000000 17.244297 -19.583475 11.115694 -0.038365 -82.768250 11.416835 -20.937338 126.791779 3.317965 -4.135784 -35.044399 1.193024 -7.539297 5.399356 9.291609 -16.105030 112.314644 -6.005808 12.390546 -36.050774 -15.965296 12.636777 
0.314203 28.932156 -12.431267 -9.274460 -15.237836 12.079385 32.434113 27.226578 0.065435 6.032685 -1.464793 1.396578 -5.440382 -1.056857 0.130267 10.406621 -5.489437 8.947282 -13.525361 -17.309700 3.405393 -72.360344 10.157028 -34.767216 -68.731682 -5.000000 4.550663 -2.903100 -9.853172 -45.000000 1.731019 23.818665 0.601976 60.616837 14.457241 7.863906 66.487000 5.000000 16.961498 -18.347542 10.290560 -1.022875 -83.091942 11.025789 -20.955040 127.067108 3.318189 -4.090401 -35.452896 1.287920 -7.447956 5.047146 8.937844 -15.892252 112.265549 -6.104294 12.649133 -36.999191 -16.154356 12.289124 
0.538312 28.920862 -12.390004 -8.783116 -15.434098 11.817733 31.949989 27.767025 0.300885 6.005835 -1.640596 1.201311 -5.069215 -1.106597 0.127916 10.325259 -5.494134 9.270834 -13.491372 -17.674042 3.482259 -72.337471 10.119587 -34.539665 -68.973961 -5.000000 4.404325 -3.091609 -10.037712 -45.000000 1.038399 24.072197 0.352005 61.417927 13.966282 7.519067 66.980713 5.000000 16.506147 -16.787783 9.224047 -2.296187 -83.361069 10.538711 -20.936478 127.359871 3.327860 -4.093168 -35.902714 1.452023 -7.335971 4.696117 8.500922 -15.755379 112.247208 -6.212137 12.863087 -38.035656 -16.328857 11.778119 
